<?xml version="1.0"?>
<svg width="193" height="180" viewBox="0 0 193 180" fill="none" xmlns="http://www.w3.org/2000/svg"> <path d="M42.7499 30.8752L19.8745 132.5" stroke="white" stroke-width="3"></path> <path d="M162.75 66.5002L55.1245 24.1252" stroke="white" stroke-width="3"></path> <path d="M169.125 79.6252L29.6245 139.25" stroke="white" stroke-width="3"></path> <ellipse cx="44.9995" cy="20" rx="11.25" ry="11.25" transform="rotate(90 44.9995 20)" fill="#5FFFB2"></ellipse> <path d="M44.9995 38C35.0584 38 26.9995 29.9411 26.9995 20C26.9995 10.0589 35.0584 2 44.9995 2C54.9406 2 62.9995 10.0589 62.9995 20C62.9995 29.9411 54.9406 38 44.9995 38Z" stroke="white" stroke-width="3"></path> <ellipse cx="173.25" cy="70.2502" rx="11.25" ry="11.25" transform="rotate(-180 173.25 70.2502)" fill="#5FFFB2"></ellipse> <path d="M155.25 70.2502C155.25 60.3091 163.308 52.2502 173.25 52.2503C183.191 52.2503 191.25 60.3091 191.25 70.2502C191.25 80.1914 183.191 88.2502 173.25 88.2502C163.308 88.2502 155.25 80.1914 155.25 70.2502Z" stroke="white" stroke-width="3"></path> <ellipse cx="19.5" cy="143" rx="11.25" ry="11.25" transform="rotate(-90 19.5 143)" fill="#5FFFB2"></ellipse> <path d="M19.5 125C29.4411 125 37.5 133.059 37.5 143C37.5 152.941 29.4411 161 19.5 161C9.55888 161 1.5 152.941 1.5 143C1.5 133.059 9.55887 125 19.5 125Z" stroke="white" stroke-width="3"></path> </svg> 