<?xml version="1.0"?>
<svg width="1003" height="439" viewBox="0 0 1003 439" fill="none" xmlns="http://www.w3.org/2000/svg"> <path d="M0.5856 143H35.2975V57.3367L67.3705 143H95.3836L127.254 57.5397V143H161.965V0.498527H121.164L81.58 99.1534L41.5903 0.498527H0.5856V143ZM180.026 86.1618C180.026 121.889 202.152 144.624 229.759 144.624C246.607 144.624 258.584 136.91 264.877 126.964V143H299.589V29.7296H264.877V45.7661C258.787 35.8194 246.81 28.1056 229.962 28.1056C202.152 28.1056 180.026 50.4349 180.026 86.1618ZM264.877 86.3648C264.877 104.431 253.306 114.378 240.112 114.378C227.12 114.378 215.346 104.228 215.346 86.1618C215.346 68.0954 227.12 58.3517 240.112 58.3517C253.306 58.3517 264.877 68.2984 264.877 86.3648ZM359.413 45.7661V29.7296H324.701V196.996H359.413V127.167C365.706 136.707 377.683 144.624 394.328 144.624C422.138 144.624 444.264 121.889 444.264 86.1618C444.264 50.4349 422.138 28.1056 394.328 28.1056C377.683 28.1056 365.706 35.8194 359.413 45.7661ZM408.944 86.1618C408.944 104.228 397.17 114.378 383.975 114.378C370.984 114.378 359.21 104.431 359.21 86.3648C359.21 68.2984 370.984 58.3517 383.975 58.3517C397.17 58.3517 408.944 68.0954 408.944 86.1618ZM541.592 233.365C541.592 197.435 516.015 175.106 482.724 175.106C449.636 175.106 423.856 197.435 423.856 233.365C423.856 269.295 449.027 291.624 482.318 291.624C515.609 291.624 541.592 269.295 541.592 233.365ZM459.177 233.365C459.177 214.08 470.138 205.149 482.724 205.149C494.903 205.149 506.271 214.08 506.271 233.365C506.271 252.446 494.7 261.581 482.318 261.581C469.732 261.581 459.177 252.446 459.177 233.365ZM563.458 290H598.17V205.555H616.845V176.73H598.17V175.715C598.17 163.738 602.839 159.678 616.236 160.49V131.056C581.728 129.229 563.458 143.845 563.458 173.482V176.73H550.873V205.555H563.458V290ZM681.654 250.619C681.654 280.053 698.097 290 721.644 290H739.304V260.566H726.922C719.208 260.566 716.366 257.724 716.366 251.025V205.555H739.101V176.73H716.366V149.122H681.654V176.73H667.851V205.555H681.654V250.619ZM758.64 290H793.352V228.493C793.352 213.065 801.877 204.54 815.072 204.54C828.266 204.54 836.792 213.065 836.792 228.493V290H871.301V223.824C871.301 193.375 854.047 175.512 828.266 175.512C812.636 175.512 800.253 182.21 793.352 191.954V139.785H758.64V290ZM945.359 202.916C956.929 202.916 966.673 210.021 966.673 222.403H923.233C925.262 209.818 933.991 202.916 945.359 202.916ZM999.558 252.446H962.613C959.771 258.536 954.291 263.408 944.547 263.408C933.382 263.408 924.247 256.506 923.03 241.688H1001.59C1001.99 238.237 1002.2 234.786 1002.2 231.538C1002.2 197.029 978.853 175.106 945.765 175.106C912.068 175.106 888.521 197.435 888.521 233.365C888.521 269.295 912.474 291.624 945.765 291.624C973.981 291.624 994.077 274.572 999.558 252.446ZM0.5856 437H35.2975V379.35H78.7381V352.352H35.2975V322.309H93.3537V294.499H0.5856V437ZM223.447 323.73H188.735V385.237C188.735 400.664 180.21 409.19 166.812 409.19C153.82 409.19 145.092 400.664 145.092 385.237V323.73H110.583V389.905C110.583 420.152 128.243 438.218 154.429 438.218C169.654 438.218 181.833 431.316 188.735 421.572V437H223.447V323.73ZM253.861 397.619C253.861 427.053 270.304 437 293.851 437H311.511V407.566H299.129C291.415 407.566 288.573 404.724 288.573 398.025V352.555H311.308V323.73H288.573V296.122H253.861V323.73H240.058V352.555H253.861V397.619ZM442.696 323.73H407.984V385.237C407.984 400.664 399.458 409.19 386.061 409.19C373.069 409.19 364.341 400.664 364.341 385.237V323.73H329.832V389.905C329.832 420.152 347.492 438.218 373.678 438.218C388.903 438.218 401.082 431.316 407.984 421.572V437H442.696V323.73ZM502.341 384.425C502.341 364.937 511.882 359.253 528.324 359.253H537.865V322.512C522.641 322.512 510.258 330.631 502.341 342.608V323.73H467.629V437H502.341V384.425ZM604.393 349.916C615.964 349.916 625.707 357.021 625.707 369.403H582.267C584.297 356.818 593.025 349.916 604.393 349.916ZM658.592 399.446H621.647C618.806 405.536 613.325 410.408 603.581 410.408C592.416 410.408 583.282 403.506 582.064 388.688H660.622C661.028 385.237 661.231 381.786 661.231 378.538C661.231 344.029 637.887 322.106 604.799 322.106C571.102 322.106 547.555 344.435 547.555 380.365C547.555 416.295 571.508 438.624 604.799 438.624C633.015 438.624 653.112 421.572 658.592 399.446Z" fill="white"></path> </svg> 