<?xml version="1.0"?>
<svg width="194" height="75" viewBox="0 0 194 75" fill="none" xmlns="http://www.w3.org/2000/svg"> <rect width="193.5" height="75" rx="15" fill="white"></rect> <path d="M49.6748 47.75H53.2658V38.174H60.5108V35.2445H53.2658V28.787H62.5583V25.8575H49.6748V47.75ZM81.6047 30.3935H78.0137V40.064C78.0137 43.2455 76.2812 44.8835 73.6352 44.8835C71.0207 44.8835 69.2882 43.2455 69.2882 40.064V30.3935H65.7287V40.5995C65.7287 45.4505 68.8157 48.002 72.8792 48.002C74.9267 48.002 76.8797 47.1515 78.0137 45.671V47.75H81.6047V30.3935ZM86.9097 42.9305C86.9097 46.4585 88.8312 47.75 91.9182 47.75H94.7532V44.7575H92.5482C91.0362 44.7575 90.5322 44.222 90.5322 42.9305V33.323H94.7532V30.3935H90.5322V26.078H86.9097V30.3935H84.8622V33.323H86.9097V42.9305ZM113.781 30.3935H110.19V40.064C110.19 43.2455 108.458 44.8835 105.812 44.8835C103.197 44.8835 101.465 43.2455 101.465 40.064V30.3935H97.9054V40.5995C97.9054 45.4505 100.992 48.002 105.056 48.002C107.103 48.002 109.056 47.1515 110.19 45.671V47.75H113.781V30.3935ZM122.11 38.615C122.11 34.9295 123.748 33.827 126.394 33.827H127.308V30.11C124.851 30.11 123.118 31.181 122.11 32.9135V30.3935H118.519V47.75H122.11V38.615ZM137.917 33.134C140.594 33.134 142.705 34.835 142.768 37.5125H133.16C133.538 34.772 135.491 33.134 137.917 33.134ZM146.044 42.584H142.169C141.508 43.9385 140.279 45.0095 138.074 45.0095C135.428 45.0095 133.381 43.277 133.129 40.4105H146.39C146.485 39.812 146.516 39.245 146.516 38.6465C146.516 33.5435 143.02 30.11 138.074 30.11C132.94 30.11 129.412 33.6065 129.412 39.056C129.412 44.5055 133.097 48.0335 138.074 48.0335C142.327 48.0335 145.067 45.608 146.044 42.584Z" fill="black"></path> </svg> 