<?xml version="1.0"?>
<svg width="553" height="63" viewBox="0 0 553 63" fill="none" xmlns="http://www.w3.org/2000/svg"> <path d="M11.446 21.944V11.032H17.212C21.428 11.032 23.226 13.14 23.226 16.488C23.226 19.836 21.428 21.944 17.212 21.944H11.446ZM34.014 16.488C34.014 8.49 28.682 2.476 18.018 2.476H0.844V46H11.446V30.376H18.018C29.116 30.376 34.014 23.68 34.014 16.488ZM54.7855 19.402C58.3195 19.402 61.2955 21.572 61.2955 25.354H48.0275C48.6475 21.51 51.3135 19.402 54.7855 19.402ZM71.3395 34.53H60.0555C59.1875 36.39 57.5135 37.878 54.5375 37.878C51.1275 37.878 48.3375 35.77 47.9655 31.244H71.9595C72.0835 30.19 72.1455 29.136 72.1455 28.144C72.1455 17.604 65.0155 10.908 54.9095 10.908C44.6175 10.908 37.4255 17.728 37.4255 28.702C37.4255 39.676 44.7415 46.496 54.9095 46.496C63.5275 46.496 69.6655 41.288 71.3395 34.53ZM88.3405 29.942C88.3405 23.99 91.2545 22.254 96.2765 22.254H99.1905V11.032C94.5405 11.032 90.7585 13.512 88.3405 17.17V11.404H77.7385V46H88.3405V29.942ZM132.344 35.956C132.158 23.06 113.434 26.966 113.434 21.448C113.434 19.774 114.798 18.782 117.278 18.782C120.254 18.782 122.052 20.332 122.362 22.688H132.158C131.476 15.868 126.516 10.908 117.588 10.908C108.536 10.908 103.514 15.744 103.514 21.634C103.514 34.344 122.362 30.314 122.362 35.894C122.362 37.444 120.936 38.684 118.208 38.684C115.294 38.684 113.124 37.072 112.876 34.654H102.398C102.894 41.35 109.094 46.496 118.332 46.496C127.012 46.496 132.344 41.97 132.344 35.956ZM172.682 28.702C172.682 17.728 164.87 10.908 154.702 10.908C144.596 10.908 136.722 17.728 136.722 28.702C136.722 39.676 144.41 46.496 154.578 46.496C164.746 46.496 172.682 39.676 172.682 28.702ZM147.51 28.702C147.51 22.812 150.858 20.084 154.702 20.084C158.422 20.084 161.894 22.812 161.894 28.702C161.894 34.53 158.36 37.32 154.578 37.32C150.734 37.32 147.51 34.53 147.51 28.702ZM202.177 46H212.717V25.788C212.717 16.488 207.385 11.032 199.387 11.032C194.737 11.032 191.017 13.078 188.909 15.992V11.404H178.307V46H188.909V27.214C188.909 22.502 191.513 19.898 195.543 19.898C199.573 19.898 202.177 22.502 202.177 27.214V46ZM217.976 28.64C217.976 39.552 224.734 46.496 233.166 46.496C238.312 46.496 241.97 44.14 243.892 41.102V46H254.494V11.404H243.892V16.302C242.032 13.264 238.374 10.908 233.228 10.908C224.734 10.908 217.976 17.728 217.976 28.64ZM243.892 28.702C243.892 34.22 240.358 37.258 236.328 37.258C232.36 37.258 228.764 34.158 228.764 28.64C228.764 23.122 232.36 20.146 236.328 20.146C240.358 20.146 243.892 23.184 243.892 28.702ZM262.164 46H272.766V0.119999H262.164V46ZM310.266 32.112C310.266 35.336 308.778 36.948 306.236 36.948C303.508 36.948 301.896 35.15 301.896 31.43H291.356C291.356 41.226 297.618 46.434 306.546 46.434C315.164 46.434 320.868 41.474 320.868 32.112V2.476H310.266V32.112ZM363.284 28.702C363.284 17.728 355.472 10.908 345.304 10.908C335.198 10.908 327.324 17.728 327.324 28.702C327.324 39.676 335.012 46.496 345.18 46.496C355.348 46.496 363.284 39.676 363.284 28.702ZM338.112 28.702C338.112 22.812 341.46 20.084 345.304 20.084C349.024 20.084 352.496 22.812 352.496 28.702C352.496 34.53 348.962 37.32 345.18 37.32C341.336 37.32 338.112 34.53 338.112 28.702ZM403.07 11.404H392.468V30.19C392.468 34.902 389.864 37.506 385.772 37.506C381.804 37.506 379.138 34.902 379.138 30.19V11.404H368.598V31.616C368.598 40.854 373.992 46.372 381.99 46.372C386.64 46.372 390.36 44.264 392.468 41.288V46H403.07V11.404ZM421.288 29.942C421.288 23.99 424.202 22.254 429.224 22.254H432.138V11.032C427.488 11.032 423.706 13.512 421.288 17.17V11.404H410.686V46H421.288V29.942ZM461.075 46H471.615V25.788C471.615 16.488 466.283 11.032 458.285 11.032C453.635 11.032 449.915 13.078 447.807 15.992V11.404H437.205V46H447.807V27.214C447.807 22.502 450.411 19.898 454.441 19.898C458.471 19.898 461.075 22.502 461.075 27.214V46ZM494.235 19.402C497.769 19.402 500.745 21.572 500.745 25.354H487.477C488.097 21.51 490.763 19.402 494.235 19.402ZM510.789 34.53H499.505C498.637 36.39 496.963 37.878 493.987 37.878C490.577 37.878 487.787 35.77 487.415 31.244H511.409C511.533 30.19 511.595 29.136 511.595 28.144C511.595 17.604 504.465 10.908 494.359 10.908C484.067 10.908 476.875 17.728 476.875 28.702C476.875 39.676 484.191 46.496 494.359 46.496C502.977 46.496 509.115 41.288 510.789 34.53ZM533.122 33.042L525.124 11.404H513.282L527.356 44.822L519.42 62.43H530.828L552.528 11.404H541.058L533.122 33.042Z" fill="white"></path> </svg> 