<?xml version="1.0"?>
<svg width="1371" height="826" viewBox="0 0 1371 826" fill="none" xmlns="http://www.w3.org/2000/svg"> <path d="M927.932 635.799C883.439 616.436 794.848 557.361 799.722 417.791C801.67 362.01 798.876 322.749 856.095 272.619C984.515 160.109 1138.61 202.933 1221.27 285.59C1303.93 368.246 1267.07 473.144 1200.82 569.449C1104.04 710.131 1035.69 682.693 927.932 635.799Z" fill="#5FFFB2"></path> <path d="M998.31 269.449C984.027 263.243 955.595 244.296 957.195 199.477C957.835 181.564 956.948 168.957 975.335 152.845C1016.6 116.684 1066.07 130.396 1092.6 156.917C1119.12 183.437 1107.25 217.131 1085.95 248.073C1054.84 293.274 1032.9 284.48 998.31 269.449Z" fill="#5FFFB2"></path> <path d="M880.576 273.44C866.293 267.234 837.86 248.287 839.461 203.468C840.101 185.555 839.214 172.948 857.601 156.836C898.867 120.674 948.34 134.386 974.861 160.907C1001.38 187.428 989.519 221.122 968.22 252.064C937.106 297.264 915.166 288.471 880.576 273.44Z" fill="#5FFFB2"></path> <path d="M802.564 568.934C778.837 558.624 731.604 527.149 734.263 452.693C735.326 422.936 733.853 401.994 764.397 375.228C832.95 315.155 915.136 337.934 959.193 381.991C1003.25 426.049 983.544 482.022 948.161 533.424C896.474 608.512 860.026 593.904 802.564 568.934Z" fill="#5FFFB2"></path> <path d="M1164.27 535.919C1142.95 526.602 1100.48 498.227 1102.66 431.427C1103.53 404.729 1102.15 385.933 1129.48 362.001C1190.83 308.289 1264.64 328.957 1304.29 368.613C1343.95 408.268 1326.42 458.437 1294.82 504.461C1248.65 571.693 1215.9 558.484 1164.27 535.919Z" fill="#5FFFB2"></path> <path d="M836.818 202.102C859.821 205.584 908.188 221.999 923.373 287.088C929.442 313.101 935.64 330.9 915.432 361.09C870.079 428.849 793.437 427.988 744.87 399.947C696.302 371.907 700.246 318.911 718.863 266.275C746.059 189.384 781.107 193.668 836.818 202.102Z" fill="#5FFFB2"></path> <path d="M357.329 338.409C365.724 359.741 375.584 409.071 327.331 454.069C308.046 472.052 295.863 486.101 260.002 483.733C179.516 478.418 142.343 412.633 142.343 357.408C142.343 302.183 189.698 279.453 244.003 269.414C323.331 254.748 336.997 286.746 357.329 338.409Z" fill="#5A86F6"></path> <path d="M586.684 451.907C595.079 473.239 583.823 563.543 535.569 608.54C516.284 626.523 435.031 639.666 399.17 637.298C318.684 631.983 237.552 484.108 248.192 410.453C257.665 344.883 306.188 314.068 360.493 304.028C439.821 289.362 566.352 400.244 586.684 451.907Z" fill="#5A86F6"></path> <path d="M127.541 555.975C87.4682 560.528 66.3948 525.154 58.8184 510.905C55.7904 505.21 57.829 485.182 60.6587 476.859C67.0098 458.18 127.247 406.122 127.296 424.325C127.474 490.191 184.721 472.844 183.655 486.309C178.936 545.911 141.034 554.442 127.541 555.975Z" fill="#5A86F6"></path> <path d="M624.895 511.131C584.822 515.684 648.22 462.633 613.727 442.719C590.085 429.069 607.144 388.759 609.974 380.437C616.325 361.757 638.362 356.69 682.205 356.138C719.951 355.664 765.439 381.393 738.563 418.123C700.353 470.344 638.388 509.598 624.895 511.131Z" fill="#5A86F6"></path> </svg> 