<?xml version="1.0"?>
<svg width="368" height="68" viewBox="0 0 368 68" fill="none" xmlns="http://www.w3.org/2000/svg"> <path d="M0.046 28.176C0.046 41.196 9.098 50.31 21.932 50.31C32.286 50.31 40.098 44.544 42.578 35.12H30.922C29.124 38.84 25.838 40.7 21.808 40.7C15.298 40.7 10.834 35.864 10.834 28.176C10.834 20.488 15.298 15.652 21.808 15.652C25.838 15.652 29.124 17.512 30.922 21.232H42.578C40.098 11.808 32.286 5.98 21.932 5.98C9.098 5.98 0.046 15.156 0.046 28.176ZM82.9226 32.702C82.9226 21.728 75.1106 14.908 64.9426 14.908C54.8366 14.908 46.9626 21.728 46.9626 32.702C46.9626 43.676 54.6506 50.496 64.8186 50.496C74.9866 50.496 82.9226 43.676 82.9226 32.702ZM57.7506 32.702C57.7506 26.812 61.0986 24.084 64.9426 24.084C68.6626 24.084 72.1346 26.812 72.1346 32.702C72.1346 38.53 68.6006 41.32 64.8186 41.32C60.9746 41.32 57.7506 38.53 57.7506 32.702ZM112.417 50H122.957V29.788C122.957 20.488 117.625 15.032 109.627 15.032C104.977 15.032 101.257 17.078 99.1491 19.992V15.404H88.5471V50H99.1491V31.214C99.1491 26.502 101.753 23.898 105.783 23.898C109.813 23.898 112.417 26.502 112.417 31.214V50ZM154.194 50H164.734V29.788C164.734 20.488 159.402 15.032 151.404 15.032C146.754 15.032 143.034 17.078 140.926 19.992V15.404H130.324V50H140.926V31.214C140.926 26.502 143.53 23.898 147.56 23.898C151.59 23.898 154.194 26.502 154.194 31.214V50ZM187.354 23.402C190.888 23.402 193.864 25.572 193.864 29.354H180.596C181.216 25.51 183.882 23.402 187.354 23.402ZM203.908 38.53H192.624C191.756 40.39 190.082 41.878 187.106 41.878C183.696 41.878 180.906 39.77 180.534 35.244H204.528C204.652 34.19 204.714 33.136 204.714 32.144C204.714 21.604 197.584 14.908 187.478 14.908C177.186 14.908 169.994 21.728 169.994 32.702C169.994 43.676 177.31 50.496 187.478 50.496C196.096 50.496 202.234 45.288 203.908 38.53ZM208.199 32.702C208.199 43.676 215.391 50.496 225.559 50.496C234.239 50.496 240.377 45.474 242.175 37.476H230.891C229.961 40.018 228.287 41.444 225.373 41.444C221.591 41.444 218.987 38.468 218.987 32.702C218.987 26.936 221.591 23.96 225.373 23.96C228.287 23.96 230.023 25.51 230.891 27.928H242.175C240.377 19.682 234.239 14.908 225.559 14.908C215.391 14.908 208.199 21.79 208.199 32.702ZM249.52 37.972C249.52 46.962 254.542 50 261.734 50H267.128V41.01H263.346C260.99 41.01 260.122 40.142 260.122 38.096V24.208H267.066V15.404H260.122V6.972H249.52V15.404H245.304V24.208H249.52V37.972ZM273.033 50H283.635V15.404H273.033V50ZM278.365 11.808C282.085 11.808 284.627 9.266 284.627 6.104C284.627 2.88 282.085 0.337996 278.365 0.337996C274.583 0.337996 272.041 2.88 272.041 6.104C272.041 9.266 274.583 11.808 278.365 11.808ZM315.189 50H325.729V29.788C325.729 20.488 320.397 15.032 312.399 15.032C307.749 15.032 304.029 17.078 301.921 19.992V15.404H291.319V50H301.921V31.214C301.921 26.502 304.525 23.898 308.555 23.898C312.585 23.898 315.189 26.502 315.189 31.214V50ZM330.988 32.64C330.988 43.552 337.746 50.496 346.24 50.496C351.324 50.496 354.982 48.078 356.904 45.04V49.938C356.904 55.766 353.742 57.874 349.712 57.874C346.054 57.874 343.45 56.2 342.768 53.596H332.29C333.22 61.842 339.916 67.05 350.208 67.05C362.174 67.05 367.506 59.176 367.506 49.938V15.404H356.904V20.302C355.044 17.202 351.324 14.908 346.24 14.908C337.746 14.908 330.988 21.728 330.988 32.64ZM356.904 32.702C356.904 38.22 353.37 41.258 349.34 41.258C345.372 41.258 341.776 38.158 341.776 32.64C341.776 27.122 345.372 24.146 349.34 24.146C353.37 24.146 356.904 27.184 356.904 32.702Z" fill="white"></path> </svg> 