<?xml version="1.0"?>
<svg width="165" height="75" viewBox="0 0 165 75" fill="none" xmlns="http://www.w3.org/2000/svg"> <rect width="165" height="75" rx="15" fill="white"></rect> <path d="M65.2414 25.826V42.143L54.4369 25.826H50.8459V47.75H54.4369V31.4015L65.2414 47.75H68.8324V25.826H65.2414ZM90.0855 39.056C90.0855 33.6065 86.1795 30.11 81.234 30.11C76.2885 30.11 72.3825 33.6065 72.3825 39.056C72.3825 44.5055 76.131 48.0335 81.0765 48.0335C86.0535 48.0335 90.0855 44.5055 90.0855 39.056ZM76.0365 39.056C76.0365 35.1185 78.462 33.2285 81.171 33.2285C83.8485 33.2285 86.4 35.1185 86.4 39.056C86.4 42.9935 83.754 44.915 81.0765 44.915C78.3675 44.915 76.0365 42.9935 76.0365 39.056ZM97.0059 47.75H100.786L104.282 34.9295L107.779 47.75H111.559L116.945 30.3935H113.417L109.826 44.285L106.298 30.3935H102.55L98.8644 44.348L95.2419 30.3935H91.5879L97.0059 47.75Z" fill="black"></path> </svg> 