<?xml version="1.0"?>
<svg width="990" height="286" viewBox="0 0 990 286" fill="none" xmlns="http://www.w3.org/2000/svg"> <path d="M318.845 169.957C320.942 175.236 301.237 198.46 289.188 209.595C284.373 214.045 281.331 217.521 272.378 216.935C252.281 215.62 243 199.341 243 185.675C243 172.009 254.824 155.368 268.383 152.883C288.19 149.254 313.769 157.172 318.845 169.957Z" fill="#5FFFB2"></path> <path d="M380.588 132.636C382.29 136.939 384.289 146.888 374.506 155.964C370.596 159.591 368.126 162.425 360.855 161.947C344.537 160.875 337 147.607 337 136.468C337 125.329 346.601 120.745 357.611 118.72C373.695 115.762 376.466 122.216 380.588 132.636Z" fill="#5A86F6"></path> <path d="M902.883 68.2972C900.613 73.3821 897.948 85.1408 910.992 95.8666C916.205 100.153 919.499 103.502 929.193 102.938C950.951 101.671 961 85.9898 961 72.8259C961 59.6621 948.198 54.244 933.518 51.8509C912.073 48.355 908.379 55.9823 902.883 68.2972Z" fill="#5A86F6"></path> <path d="M429.325 154.324C429.46 134.839 435.173 91.2279 472.738 60.1167C487.752 47.6826 497.851 37.5323 517.577 44.9849C561.849 61.7113 567.807 123.508 555.173 170.659C542.539 217.81 462.379 257.872 429.391 258.22C381.203 258.729 428.996 201.513 429.325 154.324Z" fill="#5A86F6"></path> <path d="M95.8935 112.933C99.6382 122.321 104.036 144.029 82.5131 163.831C73.911 171.745 68.477 177.927 52.4813 176.885C16.5808 174.546 0 145.596 0 121.294C0 96.9915 21.1227 86.9889 45.345 82.5708C80.729 76.1169 86.8245 90.1982 95.8935 112.933Z" fill="#5A86F6"></path> <path d="M843.323 87.8663C848.921 101.947 855.496 134.51 823.32 164.212C810.46 176.083 802.336 185.357 778.424 183.794C724.754 180.285 699.967 136.861 699.967 100.407C699.967 63.9536 731.544 48.9497 767.755 42.3226C820.653 32.6417 829.765 53.7636 843.323 87.8663Z" fill="#5FFFB2"></path> <path d="M267.573 122.61C262.114 135.242 245.409 160.372 205.715 158.839C189.851 158.226 178.689 158.979 164.374 142.655C132.245 106.018 144.26 62.2433 167.677 38.8262C191.094 15.409 220.962 26.0006 248.418 44.942C288.525 72.6115 280.794 92.0177 267.573 122.61Z" fill="#5FFFB2"></path> <path d="M893.536 185.903C890.479 193.6 886.888 211.4 904.461 227.636C911.484 234.125 956.32 235.637 969.38 234.782C998.691 232.864 988.158 212.685 988.158 192.758C988.158 172.832 981.426 170.512 961.65 166.89C932.761 161.598 900.941 167.262 893.536 185.903Z" fill="#5FFFB2"></path> </svg> 