<?xml version="1.0"?>
<svg width="279" height="68" viewBox="0 0 279 68" fill="none" xmlns="http://www.w3.org/2000/svg"> <path d="M0.844 50H11.446V23.836L21.242 50H29.798L39.532 23.898V50H50.134V6.476H37.672L25.582 36.608L13.368 6.476H0.844V50ZM55.6501 32.64C55.6501 43.552 62.4081 50.496 70.8401 50.496C75.9861 50.496 79.6441 48.14 81.5661 45.102V50H92.1681V15.404H81.5661V20.302C79.7061 17.264 76.0481 14.908 70.9021 14.908C62.4081 14.908 55.6501 21.728 55.6501 32.64ZM81.5661 32.702C81.5661 38.22 78.0321 41.258 74.0021 41.258C70.0341 41.258 66.4381 38.158 66.4381 32.64C66.4381 27.122 70.0341 24.146 74.0021 24.146C78.0321 24.146 81.5661 27.184 81.5661 32.702ZM110.44 20.302V15.404H99.8381V66.492H110.44V45.164C112.362 48.078 116.02 50.496 121.104 50.496C129.598 50.496 136.356 43.552 136.356 32.64C136.356 21.728 129.598 14.908 121.104 14.908C116.02 14.908 112.362 17.264 110.44 20.302ZM125.568 32.64C125.568 38.158 121.972 41.258 117.942 41.258C113.974 41.258 110.378 38.22 110.378 32.702C110.378 27.184 113.974 24.146 117.942 24.146C121.972 24.146 125.568 27.122 125.568 32.64ZM152.52 20.302V15.404H141.918V66.492H152.52V45.164C154.442 48.078 158.1 50.496 163.184 50.496C171.678 50.496 178.436 43.552 178.436 32.64C178.436 21.728 171.678 14.908 163.184 14.908C158.1 14.908 154.442 17.264 152.52 20.302ZM167.648 32.64C167.648 38.158 164.052 41.258 160.022 41.258C156.054 41.258 152.458 38.22 152.458 32.702C152.458 27.184 156.054 24.146 160.022 24.146C164.052 24.146 167.648 27.122 167.648 32.64ZM183.998 50H194.6V15.404H183.998V50ZM189.33 11.808C193.05 11.808 195.592 9.266 195.592 6.104C195.592 2.88 193.05 0.337996 189.33 0.337996C185.548 0.337996 183.006 2.88 183.006 6.104C183.006 9.266 185.548 11.808 189.33 11.808ZM226.153 50H236.693V29.788C236.693 20.488 231.361 15.032 223.363 15.032C218.713 15.032 214.993 17.078 212.885 19.992V15.404H202.283V50H212.885V31.214C212.885 26.502 215.489 23.898 219.519 23.898C223.549 23.898 226.153 26.502 226.153 31.214V50ZM241.953 32.64C241.953 43.552 248.711 50.496 257.205 50.496C262.289 50.496 265.947 48.078 267.869 45.04V49.938C267.869 55.766 264.707 57.874 260.677 57.874C257.019 57.874 254.415 56.2 253.733 53.596H243.255C244.185 61.842 250.881 67.05 261.173 67.05C273.139 67.05 278.471 59.176 278.471 49.938V15.404H267.869V20.302C266.009 17.202 262.289 14.908 257.205 14.908C248.711 14.908 241.953 21.728 241.953 32.64ZM267.869 32.702C267.869 38.22 264.335 41.258 260.305 41.258C256.337 41.258 252.741 38.158 252.741 32.64C252.741 27.122 256.337 24.146 260.305 24.146C264.335 24.146 267.869 27.184 267.869 32.702Z" fill="white"></path> </svg> 