<?xml version="1.0"?>
<svg width="374" height="67" viewBox="0 0 374 67" fill="none" xmlns="http://www.w3.org/2000/svg"> <path d="M11.446 25.944V15.032H17.212C21.428 15.032 23.226 17.14 23.226 20.488C23.226 23.836 21.428 25.944 17.212 25.944H11.446ZM34.014 20.488C34.014 12.49 28.682 6.476 18.018 6.476H0.844V50H11.446V34.376H18.018C29.116 34.376 34.014 27.68 34.014 20.488ZM50.1355 33.942C50.1355 27.99 53.0495 26.254 58.0715 26.254H60.9855V15.032C56.3355 15.032 52.5535 17.512 50.1355 21.17V15.404H39.5335V50H50.1355V33.942ZM99.905 32.702C99.905 21.728 92.093 14.908 81.925 14.908C71.819 14.908 63.945 21.728 63.945 32.702C63.945 43.676 71.633 50.496 81.801 50.496C91.969 50.496 99.905 43.676 99.905 32.702ZM74.733 32.702C74.733 26.812 78.081 24.084 81.925 24.084C85.645 24.084 89.117 26.812 89.117 32.702C89.117 38.53 85.583 41.32 81.801 41.32C77.957 41.32 74.733 38.53 74.733 32.702ZM110.8 11.808C114.52 11.808 117.062 9.266 117.062 6.104C117.062 2.88 114.52 0.337996 110.8 0.337996C107.018 0.337996 104.476 2.88 104.476 6.104C104.476 9.266 107.018 11.808 110.8 11.808ZM105.53 15.404V54.588C105.53 56.634 104.662 57.502 102.306 57.502H99.7635V66.492H103.918C111.11 66.492 116.132 63.454 116.132 54.464V15.404H105.53ZM139.006 23.402C142.54 23.402 145.516 25.572 145.516 29.354H132.248C132.868 25.51 135.534 23.402 139.006 23.402ZM155.56 38.53H144.276C143.408 40.39 141.734 41.878 138.758 41.878C135.348 41.878 132.558 39.77 132.186 35.244H156.18C156.304 34.19 156.366 33.136 156.366 32.144C156.366 21.604 149.236 14.908 139.13 14.908C128.838 14.908 121.646 21.728 121.646 32.702C121.646 43.676 128.962 50.496 139.13 50.496C147.748 50.496 153.886 45.288 155.56 38.53ZM159.851 32.702C159.851 43.676 167.043 50.496 177.211 50.496C185.891 50.496 192.029 45.474 193.827 37.476H182.543C181.613 40.018 179.939 41.444 177.025 41.444C173.243 41.444 170.639 38.468 170.639 32.702C170.639 26.936 173.243 23.96 177.025 23.96C179.939 23.96 181.675 25.51 182.543 27.928H193.827C192.029 19.682 185.891 14.908 177.211 14.908C167.043 14.908 159.851 21.79 159.851 32.702ZM201.172 37.972C201.172 46.962 206.194 50 213.386 50H218.78V41.01H214.998C212.642 41.01 211.774 40.142 211.774 38.096V24.208H218.718V15.404H211.774V6.972H201.172V15.404H196.956V24.208H201.172V37.972ZM237.824 50H248.426V23.836L258.222 50H266.778L276.512 23.898V50H287.114V6.476H274.652L262.562 36.608L250.348 6.476H237.824V50ZM292.631 32.64C292.631 43.552 299.389 50.496 307.821 50.496C312.967 50.496 316.625 48.14 318.547 45.102V50H329.149V15.404H318.547V20.302C316.687 17.264 313.029 14.908 307.883 14.908C299.389 14.908 292.631 21.728 292.631 32.64ZM318.547 32.702C318.547 38.22 315.013 41.258 310.983 41.258C307.015 41.258 303.419 38.158 303.419 32.64C303.419 27.122 307.015 24.146 310.983 24.146C315.013 24.146 318.547 27.184 318.547 32.702ZM347.421 20.302V15.404H336.819V66.492H347.421V45.164C349.343 48.078 353.001 50.496 358.085 50.496C366.579 50.496 373.337 43.552 373.337 32.64C373.337 21.728 366.579 14.908 358.085 14.908C353.001 14.908 349.343 17.264 347.421 20.302ZM362.549 32.64C362.549 38.158 358.953 41.258 354.923 41.258C350.955 41.258 347.359 38.22 347.359 32.702C347.359 27.184 350.955 24.146 354.923 24.146C358.953 24.146 362.549 27.122 362.549 32.64Z" fill="white"></path> </svg> 