<?xml version="1.0"?>
<svg width="470" height="68" viewBox="0 0 470 68" fill="none" xmlns="http://www.w3.org/2000/svg"> <path d="M0.488 14.97H12.02V50H22.622V14.97H34.154V6.476H0.488V14.97ZM39.4749 50H50.0769V15.404H39.4749V50ZM44.8069 11.808C48.5269 11.808 51.0689 9.266 51.0689 6.104C51.0689 2.88 48.5269 0.337996 44.8069 0.337996C41.0249 0.337996 38.4829 2.88 38.4829 6.104C38.4829 9.266 41.0249 11.808 44.8069 11.808ZM105.438 50H115.978V29.788C115.978 20.488 110.46 15.032 101.904 15.032C96.882 15.032 92.542 17.822 90.248 21.48C87.892 17.326 83.676 15.032 78.468 15.032C73.942 15.032 70.408 16.954 68.362 19.744V15.404H57.76V50H68.362V31.214C68.362 26.688 70.966 24.208 74.996 24.208C79.026 24.208 81.63 26.688 81.63 31.214V50H92.17V31.214C92.17 26.688 94.774 24.208 98.804 24.208C102.834 24.208 105.438 26.688 105.438 31.214V50ZM138.645 23.402C142.179 23.402 145.155 25.572 145.155 29.354H131.887C132.507 25.51 135.173 23.402 138.645 23.402ZM155.199 38.53H143.915C143.047 40.39 141.373 41.878 138.397 41.878C134.987 41.878 132.197 39.77 131.825 35.244H155.819C155.943 34.19 156.005 33.136 156.005 32.144C156.005 21.604 148.875 14.908 138.769 14.908C128.477 14.908 121.285 21.728 121.285 32.702C121.285 43.676 128.601 50.496 138.769 50.496C147.387 50.496 153.525 45.288 155.199 38.53ZM172.381 14.97H183.913V50H194.515V14.97H206.047V6.476H172.381V14.97ZM221.969 33.942C221.969 27.99 224.883 26.254 229.905 26.254H232.819V15.032C228.169 15.032 224.387 17.512 221.969 21.17V15.404H211.367V50H221.969V33.942ZM235.779 32.64C235.779 43.552 242.537 50.496 250.969 50.496C256.115 50.496 259.773 48.14 261.695 45.102V50H272.297V15.404H261.695V20.302C259.835 17.264 256.177 14.908 251.031 14.908C242.537 14.908 235.779 21.728 235.779 32.64ZM261.695 32.702C261.695 38.22 258.161 41.258 254.131 41.258C250.163 41.258 246.567 38.158 246.567 32.64C246.567 27.122 250.163 24.146 254.131 24.146C258.161 24.146 261.695 27.184 261.695 32.702ZM276.681 15.404L288.957 50H302.039L314.315 15.404H303.031L295.529 40.08L288.027 15.404H276.681ZM334.03 23.402C337.564 23.402 340.54 25.572 340.54 29.354H327.272C327.892 25.51 330.558 23.402 334.03 23.402ZM350.584 38.53H339.3C338.432 40.39 336.758 41.878 333.782 41.878C330.372 41.878 327.582 39.77 327.21 35.244H351.204C351.328 34.19 351.39 33.136 351.39 32.144C351.39 21.604 344.26 14.908 334.154 14.908C323.862 14.908 316.67 21.728 316.67 32.702C316.67 43.676 323.986 50.496 334.154 50.496C342.772 50.496 348.91 45.288 350.584 38.53ZM356.983 50H367.585V4.12H356.983V50ZM375.268 50H385.87V15.404H375.268V50ZM380.6 11.808C384.32 11.808 386.862 9.266 386.862 6.104C386.862 2.88 384.32 0.337996 380.6 0.337996C376.818 0.337996 374.276 2.88 374.276 6.104C374.276 9.266 376.818 11.808 380.6 11.808ZM417.423 50H427.963V29.788C427.963 20.488 422.631 15.032 414.633 15.032C409.983 15.032 406.263 17.078 404.155 19.992V15.404H393.553V50H404.155V31.214C404.155 26.502 406.759 23.898 410.789 23.898C414.819 23.898 417.423 26.502 417.423 31.214V50ZM433.222 32.64C433.222 43.552 439.98 50.496 448.474 50.496C453.558 50.496 457.216 48.078 459.138 45.04V49.938C459.138 55.766 455.976 57.874 451.946 57.874C448.288 57.874 445.684 56.2 445.002 53.596H434.524C435.454 61.842 442.15 67.05 452.442 67.05C464.408 67.05 469.74 59.176 469.74 49.938V15.404H459.138V20.302C457.278 17.202 453.558 14.908 448.474 14.908C439.98 14.908 433.222 21.728 433.222 32.64ZM459.138 32.702C459.138 38.22 455.604 41.258 451.574 41.258C447.606 41.258 444.01 38.158 444.01 32.64C444.01 27.122 447.606 24.146 451.574 24.146C455.604 24.146 459.138 27.184 459.138 32.702Z" fill="white"></path> </svg> 