<?xml version="1.0"?>
<svg width="142" height="30" viewBox="0 0 142 30" fill="none" xmlns="http://www.w3.org/2000/svg"> <path d="M18.8478 6.54688V23.8259H15.3791V11.7679L10.9406 23.8259H7.91943L3.49336 11.8176V23.8259H-0.000244141V6.54688H4.23933L9.48596 19.5496L14.6331 6.54688H18.8478Z" fill="white"></path> <path d="M54.7043 6.34814V9.12024H49.8803V23.826H46.3867V9.12024H41.5877V6.34814H54.7043Z" fill="white"></path> <path d="M60.7462 6.34814V23.826H57.2526V6.34814H60.7462Z" fill="white"></path> <path d="M39.2748 11.4945C38.8272 10.4254 38.1683 9.4558 37.3477 8.63536C36.5271 7.81492 35.5574 7.15608 34.4882 6.70856C33.3817 6.23619 32.2005 6 30.9821 6C29.7637 6 28.5826 6.23619 27.4761 6.70856C26.4069 7.15608 25.4371 7.81492 24.6166 8.63536C23.796 9.4558 23.1371 10.4254 22.6895 11.4945C22.217 12.6008 21.9808 13.7818 21.9808 15C21.9808 16.2182 22.217 17.3992 22.6895 18.5055C23.1371 19.5746 23.796 20.5442 24.6166 21.3646C25.4371 22.1851 26.4069 22.8439 27.4761 23.2914C28.5826 23.7638 29.7637 24 30.9821 24C32.2005 24 33.3817 23.7638 34.4882 23.2914C35.5574 22.8439 36.5271 22.1851 37.3477 21.3646C38.1683 20.5442 38.8272 19.5746 39.2748 18.5055C39.7472 17.3992 39.9835 16.2182 39.9835 15C39.9835 13.7818 39.7472 12.6133 39.2748 11.4945ZM36.179 15C36.179 15.8826 35.4704 16.5912 34.5876 16.5912C33.7049 16.5912 32.9962 15.8826 32.9962 15C32.9962 14.1174 33.7049 13.4088 34.5876 13.4088C35.4704 13.4088 36.179 14.1174 36.179 15ZM33.9411 11.0718C32.0513 11.3826 30.5967 13.0235 30.5967 15.0124C30.5967 17.0014 32.0513 18.6423 33.9411 18.953C33.5806 19.0649 33.1827 19.1146 32.7849 19.1146C30.5221 19.1146 28.6821 17.2749 28.6821 15.0124C28.6821 12.75 30.5221 10.9102 32.7849 10.9102C33.1827 10.8978 33.5681 10.9599 33.9411 11.0718ZM24.3679 15C24.3679 11.3453 27.3269 8.38674 30.9821 8.38674C31.4297 8.38674 31.8773 8.43646 32.3 8.52348C31.5913 8.5732 30.9075 8.74724 30.261 9.02072C29.4902 9.34392 28.794 9.8163 28.1972 10.413C27.6004 11.0097 27.128 11.7058 26.8047 12.4765C26.469 13.2721 26.295 14.1174 26.295 15C26.295 15.8826 26.469 16.7403 26.8047 17.5235C27.128 18.2942 27.6004 18.9903 28.1972 19.587C28.794 20.1837 29.4902 20.6561 30.261 20.9793C30.9075 21.2528 31.5913 21.4268 32.3 21.4765C31.8773 21.5635 31.4297 21.6133 30.9821 21.6133C27.3269 21.6133 24.3679 18.6547 24.3679 15Z" fill="white"></path> <path d="M103.748 20.0054H141.741V29.4853H103.748V20.0054Z" fill="white"></path> <path d="M103.752 3.00817C103.793 3.0036 103.816 2.99902 103.839 2.99902C105.328 3.0036 106.818 2.99269 108.307 3.01943C109.234 3.03632 110.14 3.20732 110.971 3.64608C112.296 4.34591 112.975 5.45354 113.016 6.95138C113.045 8.00517 112.755 8.94391 112.007 9.71166C111.507 10.2243 110.898 10.5705 110.241 10.839C110.192 10.859 110.143 10.878 110.095 10.8992C110.085 10.9034 110.079 10.9153 110.072 10.9241C111.021 11.6015 111.619 12.5733 112.243 13.5201C113.37 15.2276 114.486 16.9422 115.606 18.654C115.627 18.687 115.644 18.7233 115.679 18.787C115.39 18.787 115.123 18.7884 114.857 18.7866C114.652 18.7852 114.412 18.8447 114.253 18.7578C114.094 18.6709 114.014 18.4369 113.904 18.2648C112.884 16.6766 111.874 15.0823 110.842 13.5022C110.564 13.0768 110.228 12.689 109.91 12.2911C109.417 11.6743 108.756 11.346 107.984 11.2858C107.261 11.2295 106.532 11.2376 105.806 11.2215C105.532 11.2155 105.257 11.2204 104.965 11.2204V18.7722H103.752V3.00817ZM104.971 10.1845C105.031 10.1891 105.077 10.1955 105.123 10.1955C105.985 10.1962 106.847 10.2011 107.709 10.194C108.339 10.1891 108.963 10.1254 109.565 9.92769C110.686 9.55966 111.458 8.8651 111.649 7.6484C111.86 6.3008 111.348 5.20373 110.22 4.58517C109.569 4.22804 108.858 4.07288 108.126 4.05176C107.118 4.02256 106.109 4.03276 105.1 4.02678C105.061 4.02678 105.021 4.03558 104.971 4.04156V10.1845Z" fill="white"></path> <path d="M141.755 18.7871C141.335 18.7871 140.943 18.7924 140.552 18.7808C140.501 18.7794 140.434 18.6995 140.406 18.6411C139.861 17.4599 139.322 16.2763 138.78 15.093C138.531 14.5494 138.279 14.0075 138.035 13.4622C137.992 13.3665 137.94 13.3355 137.837 13.3355C135.357 13.3383 132.876 13.3383 130.396 13.3348C130.278 13.3348 130.236 13.3865 130.193 13.4808C129.415 15.1933 128.631 16.9033 127.856 18.6172C127.795 18.7523 127.724 18.7948 127.582 18.791C127.231 18.7811 126.879 18.7878 126.491 18.7878C126.527 18.7002 126.553 18.6333 126.583 18.5683C128.013 15.453 129.444 12.338 130.875 9.22307C131.819 7.16755 132.764 5.11238 133.703 3.05475C133.764 2.9214 133.842 2.89958 133.977 2.87988C134.347 2.82569 134.514 2.97734 134.669 3.31793C136.4 7.12708 138.152 10.9264 139.899 14.7281C140.498 16.0328 141.097 17.3378 141.696 18.6425C141.713 18.6791 141.727 18.7167 141.756 18.7875L141.755 18.7871ZM130.737 12.2916H137.497C136.368 9.82509 135.248 7.37795 134.111 4.89388C132.976 7.38218 131.86 9.82966 130.737 12.2916Z" fill="white"></path> <path d="M124.941 5.1249C124.514 4.91203 124.112 4.69493 123.697 4.50845C122.916 4.15695 122.108 3.90432 121.236 3.94267C119.963 3.99897 118.959 4.52956 118.358 5.67836C117.728 6.88451 118.106 8.33203 119.219 9.11244C119.8 9.51953 120.457 9.77321 121.108 10.0389C121.911 10.3661 122.726 10.6743 123.495 11.0694C124.879 11.7802 125.548 12.9508 125.599 14.5098C125.683 17.0573 123.612 18.7317 121.698 18.9467C120.35 19.0983 119.103 18.7894 117.916 18.1754C117.631 18.0277 117.36 17.851 117.079 17.6931C116.988 17.6413 116.948 17.5801 116.95 17.47C116.957 17.0495 116.953 16.6291 116.953 16.1681C117.044 16.2315 117.109 16.2758 117.173 16.3205C118.036 16.926 118.937 17.4577 119.97 17.7247C121.42 18.0991 122.817 17.6473 123.673 16.5274C124.655 15.2428 124.398 13.3389 123.109 12.366C122.499 11.9054 121.796 11.625 121.095 11.3379C120.315 11.0184 119.523 10.7165 118.773 10.3355C117.26 9.56773 116.662 8.29895 116.747 6.70858C116.852 4.70338 118.645 3.10773 120.495 2.85615C121.913 2.66334 123.24 2.97613 124.524 3.56689C124.844 3.71397 124.994 3.88286 124.948 4.24562C124.912 4.53167 124.941 4.82617 124.941 5.12419V5.1249Z" fill="white"></path> <path d="M78.6427 10.105L81.9672 15.6038L85.2917 10.105H87.0295L82.8823 16.5525L87.0295 23H85.2917L81.9672 17.6774L78.6427 23H76.9133L81.0101 16.5525L76.9133 10.105H78.6427Z" fill="white"></path> </svg> 